# xmcd CD database file
#
# Track frame offsets:
#	150
#	15299
#	25251
#	44243
#	56801
#	84383
#	106741
#	123217
#	147935
#	163208
#	173505
#	190850
#	207209
#	217633
#	240113
#
# Disc length: 3481 seconds
#
# Revision: 0
# Processed by: cddbd v1.5.2PL0 Copyright (c) Steve Scherf et al.
# Submitted via: CDex 1.51
#
DISCID=ba0d970f
DTITLE=Jazzlounge - Jazzlounge 04
DYEAR=2008
DGENRE=Jazz
TTITLE0=Everlasting Love - Jamie Cullum
TTITLE1=Cant buy me love - Rita Reys
TTITLE2=Desafinado - Getz/Gilberto
TTITLE3=Fever - Sarah Vaughan
TTITLE4=Hello Dolly - Eugene Cicero
TTITLE5=Brown Skin - India Arie
TTITLE6=Crush - Richard Elliot
TTITLE7=I Heard it through the grapevine - Knight/The Pips
TTITLE8=Pink Panther - Quincy Jones
TTITLE9=It dont mean a thing - Ernestine Anderson
TTITLE10=Isn't she lovely - Monty Alexander
TTITLE11=Dream a little dream - Laura Fygi
TTITLE12=The Shadow of your smile - Wes Montgomery
TTITLE13=My one and only Love - Fessler - NDR Bigband
TTITLE14=They can't take that away from me - Armstrong/Fitzgerald
EXTD=YEAR: 2008
EXTT0=
EXTT1=
EXTT2=
EXTT3=
EXTT4=
EXTT5=
EXTT6=
EXTT7=
EXTT8=
EXTT9=
EXTT10=
EXTT11=
EXTT12=
EXTT13=
EXTT14=
PLAYORDER=
